<svg xmlns="http://www.w3.org/2000/svg" version="1.1" id="Layer_1" x="0px" y="0px" width="100%" viewBox="0 0 1024 1024"
     enable-background="new 0 0 1024 1024" xml:space="preserve">
<path fill="#000000" opacity="1.000000" stroke="none"
      d=" M578.232666,529.737915   C587.638367,539.451904 596.512146,549.204590 606.017334,558.297119   C619.928894,571.604736 626.607727,587.915649 629.403992,606.706848   C632.482361,627.394653 635.121399,648.212769 640.405701,668.511963   C641.415894,672.392639 640.240417,674.147522 637.067749,676.017517   C628.063049,681.325012 619.089539,686.726624 611.605103,694.465576   C619.679260,690.472717 627.784607,686.541199 635.819702,682.471130   C645.442444,677.597046 643.765503,677.825439 647.020935,686.951599   C647.691895,688.832703 648.262451,690.749878 648.945129,692.626526   C653.657532,705.581238 649.852173,703.429810 664.701782,703.698792   C668.493835,703.767456 672.288147,703.708984 676.868530,703.708984   C675.180481,698.146240 673.671021,693.496582 672.357666,688.792114   C663.178345,655.911621 651.994202,623.668457 641.370483,591.247925   C636.124573,575.238892 625.867554,562.676880 613.523193,551.648621   C608.059082,546.767090 602.452698,542.039978 596.799988,537.377197   C594.968445,535.866455 593.957092,534.227783 594.086670,531.845215   C595.390198,507.868378 594.245972,483.874390 594.588501,459.890747   C594.611694,458.270264 594.032166,456.563110 595.040833,455.059082   C596.314880,454.366119 597.313660,455.082306 598.362122,455.565186   C611.221252,461.487305 623.914734,467.808807 636.979004,473.237823   C665.180176,484.957245 683.370483,505.456665 692.222229,534.478271   C698.967590,556.593445 705.446838,578.791626 712.393616,600.842957   C717.986450,618.596619 722.819763,636.598450 729.427368,654.025757   C730.649109,657.248047 730.523743,660.918152 732.578247,663.873718   C735.174194,663.923889 736.701294,662.638611 737.869446,660.615662   C744.383789,649.334473 748.613770,637.318115 748.625366,624.193420   C748.699036,540.865967 748.749390,457.538239 748.620056,374.210846   C748.569458,341.632782 722.285706,310.425354 690.322021,304.608673   C684.940552,303.629364 679.441101,303.247589 673.911682,303.345856   C664.581909,303.511658 655.244812,303.275146 645.915405,303.450836   C642.179443,303.521210 640.577148,302.486786 640.586914,298.406311   C640.609680,288.899048 640.417664,288.723022 650.054077,288.909393   C663.359802,289.166779 676.704651,287.731873 689.970337,289.619598   C714.676575,293.135345 733.577148,306.031158 747.895996,326.025482   C758.636169,341.022736 763.152527,358.035004 763.210815,376.313904   C763.289978,401.145386 763.366638,425.978058 763.170593,450.808105   C763.135681,455.226318 764.520813,456.769562 768.806763,456.630310   C774.632690,456.441071 780.470703,456.632263 786.303528,456.649078   C790.161804,456.660187 793.038574,458.292633 793.100464,462.332275   C793.162720,466.398468 790.520813,468.858917 786.473877,469.020660   C780.483521,469.260101 774.474121,469.247772 768.479980,469.082947   C764.769531,468.980896 763.035767,470.036438 763.154602,474.157104   C763.511353,486.528046 761.666382,485.352081 774.117249,485.445038   C789.615662,485.560699 805.092102,484.469910 820.581604,485.061676   C822.908020,485.150543 825.237854,485.289856 827.551636,485.539490   C830.761963,485.885834 833.110779,487.592285 832.921082,490.942719   C832.726868,494.371185 830.343079,496.299377 826.872559,496.360840   C817.546936,496.526031 808.219360,496.647095 798.892456,496.653381   C788.562744,496.660309 778.231995,496.581146 767.903748,496.410004   C764.557556,496.354553 762.986328,497.472229 763.233032,501.048340   C763.473328,504.531708 763.488342,508.058319 763.241699,511.540375   C762.958008,515.546936 764.689819,516.738037 768.503845,516.714600   C787.501831,516.597473 806.500977,516.659363 825.499756,516.678040   C831.660706,516.684082 835.019775,518.656982 835.157349,522.266418   C835.305481,526.153870 831.791931,528.406189 825.507935,528.406311   C807.009155,528.406799 788.510254,528.371887 770.011536,528.398071   C763.646545,528.407104 763.244446,528.855042 763.239502,535.249878   C763.217712,563.414673 762.817261,591.585938 763.285461,619.742737   C764.069702,666.908325 727.267700,711.046021 679.150696,718.022766   C676.528503,718.402954 673.831970,718.360657 671.169983,718.362000   C643.171814,718.376038 615.173401,718.412720 587.175720,718.288757   C583.238892,718.271362 580.489746,719.194580 577.813904,722.475281   C571.613831,730.076538 563.153748,734.104004 553.350891,734.168030   C524.020752,734.359619 494.686188,734.451233 465.358551,734.121826   C454.195099,733.996399 443.963379,730.598633 436.996735,720.934631   C435.125336,718.338745 432.574799,718.367981 429.870972,718.370544   C402.206116,718.397095 374.539673,718.220276 346.876923,718.466675   C321.380493,718.693726 300.288239,708.634827 282.319489,691.369934   C267.144104,676.788940 257.197205,659.165588 253.413971,638.286377   C252.372711,632.539734 251.893799,626.740845 251.892471,620.902344   C251.886032,592.404358 251.882568,563.906311 251.878098,535.408325   C251.877014,528.468201 251.817886,528.395996 244.975418,528.392090   C229.309769,528.383240 213.644135,528.389587 197.978485,528.383362   C195.978775,528.382568 193.978043,528.376343 191.979553,528.314941   C188.052719,528.194458 184.831421,526.715881 184.785477,522.381897   C184.737930,517.895874 188.052261,516.670349 191.990250,516.670166   C208.655823,516.669250 225.321579,516.702637 241.986908,516.633606   C252.360214,516.590637 252.009705,518.200928 251.901199,506.712341   C251.790939,495.037384 253.417923,496.443176 241.471893,496.413055   C220.306732,496.359619 199.141342,496.387238 177.976059,496.375366   C176.309753,496.374451 174.637100,496.414368 172.978561,496.288239   C169.754974,496.042969 167.468765,494.460083 167.445267,491.057037   C167.422058,487.696655 169.568344,485.982758 172.840317,485.692383   C173.833588,485.604218 174.838638,485.642792 175.838379,485.634216   C198.831116,485.437378 221.823898,485.245575 244.816589,485.044312   C251.880600,484.982513 251.924515,484.967865 251.748978,478.149658   C251.514175,469.029541 253.699356,469.164307 242.461456,469.179138   C232.129105,469.192780 221.796585,469.115753 211.464188,469.071442   C210.465164,469.067139 209.454361,469.099365 208.469604,468.964386   C204.615982,468.436157 202.324371,466.301483 202.531387,462.302094   C202.731277,458.439972 205.344986,456.729218 208.916718,456.694366   C220.414932,456.582062 231.914688,456.634277 243.413727,456.592834   C251.682312,456.563019 251.840042,456.372589 251.842377,448.273621   C251.849396,423.942078 251.103561,399.580505 252.058578,375.285950   C253.531967,337.804749 271.584625,310.656128 305.926880,294.945068   C315.241730,290.683716 325.213837,288.780884 335.540222,288.843964   C348.538696,288.923370 361.540710,288.950806 374.536011,288.714752   C378.768799,288.637909 380.510742,289.782928 380.418854,294.316559   C380.235382,303.365204 380.457977,303.368958 371.589966,303.370056   C360.590668,303.371399 349.587433,303.565308 338.592926,303.336609   C315.479950,302.855835 297.605988,312.918030 283.091461,330.178162   C271.386047,344.097809 266.486267,360.406677 266.452850,378.230652   C266.313293,452.723541 266.320496,527.216797 266.362366,601.709900   C266.370483,616.140015 265.382507,630.681946 270.218781,644.712708   C272.806763,652.220886 276.013336,659.355957 280.841156,665.716492   C284.078033,664.390503 284.144226,661.660645 284.844025,659.396667   C297.125580,619.664429 309.243408,579.880920 321.695526,540.202332   C325.832977,527.018433 330.787537,514.165527 339.356293,502.929718   C350.266479,488.623718 365.027466,479.900055 381.044617,472.875366   C395.074768,466.722046 409.214844,460.818146 423.343933,454.893555   C424.946625,454.221497 426.556458,452.928772 428.576599,453.835815   C429.661163,455.485901 429.244476,457.372101 429.243866,459.162262   C429.236176,481.660553 429.132294,504.159058 429.203339,526.656982   C429.214813,530.293396 428.214142,532.778564 425.144135,535.067444   C416.601349,541.436646 408.355713,548.206116 400.028351,554.862000   C383.907715,567.746826 376.135925,585.559692 370.265442,604.649170   C361.802856,632.167786 352.953400,659.567383 344.296997,687.026611   C342.659302,692.221558 341.152100,697.457581 339.318359,703.561279   C347.212402,704.270935 354.597534,703.998718 361.962860,703.587524   C363.908905,703.478882 364.267151,701.371399 364.792206,699.826538   C366.613251,694.468201 368.529968,689.133667 370.089844,683.698181   C371.235046,679.707703 372.870819,679.138733 376.518707,681.229797   C387.491791,687.519714 398.831299,693.125305 410.500366,698.156067   C404.511932,692.365479 397.627289,687.753052 390.717255,683.192749   C386.408600,680.349182 382.015076,677.625000 377.562531,675.012817   C375.429199,673.761292 374.307465,672.263306 374.876587,669.748840   C380.493256,644.933838 382.872162,619.526489 388.627258,594.733459   C391.009033,584.472656 395.329163,575.237061 402.305115,567.304260   C409.356628,559.285400 416.999207,551.851990 424.907043,544.688843   C425.843658,543.840393 426.713287,542.627014 428.391907,543.093445   C429.787354,544.414978 429.205505,546.181580 429.212585,547.754333   C429.277222,562.085815 429.172150,576.418945 429.364258,590.748291   C429.409790,594.147827 428.283691,596.314575 425.531677,598.191406   C417.510315,603.661743 410.679688,610.460815 404.450256,617.943237   C410.775574,615.137146 415.982758,610.600220 421.661987,606.822876   C437.401917,596.354248 453.927551,587.453064 471.750610,581.054016   C472.847595,580.660217 473.944153,580.240906 475.072998,579.964600   C478.960449,579.013123 483.056580,577.502075 485.670471,582.223450   C487.699677,585.888733 486.415466,591.206238 482.230774,594.176758   C477.354340,597.638367 472.067505,600.524353 466.940735,603.630432   C450.111572,613.826172 438.888489,628.402527 433.024384,647.128601   C430.098541,656.471802 429.279755,666.060730 430.378784,675.767395   C432.166290,691.555420 445.262909,703.429688 461.932159,703.556335   C494.094482,703.800659 526.263550,703.837524 558.423767,703.453979   C580.893677,703.186035 593.408203,690.041016 593.697021,667.567139   C593.729126,665.067688 593.692078,662.565125 593.808105,660.069641   C593.963623,656.725891 592.590881,654.674927 589.071106,654.109558   C587.331238,655.911072 588.063599,658.199768 588.099182,660.217346   C588.196594,665.734619 588.030945,671.257568 586.962891,676.635986   C584.375732,689.663879 574.596741,697.752869 559.962219,697.919739   C527.301697,698.292114 494.631104,698.439392 461.972321,698.044312   C443.750366,697.823853 432.466187,681.140442 434.982391,661.173401   C438.197479,635.660767 452.186798,618.189575 473.884613,605.920349   C475.334961,605.100220 476.784393,604.277405 478.214264,603.422485   C486.730591,598.330994 494.797485,592.921387 492.932312,580.330261   C499.170929,586.894348 498.368439,599.139099 492.196350,606.622681   C488.783905,610.760254 484.068604,612.773743 479.587341,615.348999   C470.204193,620.741333 460.962158,626.595886 454.441040,635.461182   C445.779724,647.235962 442.548187,660.661194 444.451721,675.159790   C445.476105,682.962524 453.245209,688.861145 462.281342,688.883118   C486.946136,688.942993 511.611206,688.887939 536.276184,688.875305   C544.775574,688.870972 553.276672,688.963196 561.773804,688.819824   C570.957764,688.664917 577.614136,682.914490 578.779541,673.775757   C580.651550,659.097595 579.865784,644.925842 570.419922,632.395203   C567.232239,628.166504 564.511963,623.475403 562.281250,618.669189   C560.424744,614.669189 558.082886,613.936157 554.003845,614.682922   C540.685791,617.120972 528.432922,609.266174 525.248474,596.612549   C523.026184,587.782288 527.620422,575.880554 535.110535,570.375916   C537.322449,568.750366 538.716858,569.259155 540.110962,571.127197   C550.742920,585.373047 562.538208,598.846985 567.608215,616.546753   C570.877747,627.960571 580.014404,637.604126 591.048096,642.329163   C590.699768,640.307861 589.283386,639.389343 588.244141,638.360413   C581.014282,631.202209 575.420898,622.902100 572.335266,613.255493   C566.698242,595.631958 555.060364,581.844299 543.897522,567.789307   C533.331787,554.486145 521.939087,541.841431 512.125000,527.935181   C509.914398,524.802734 507.719421,521.674011 506.433014,517.999146   C504.922852,513.685242 505.868713,510.069489 509.527496,507.376221   C513.176331,504.690338 516.681702,506.065430 519.488159,508.723175   C524.806458,513.759766 530.020142,518.936157 534.932129,524.366638   C546.106262,536.720215 556.984131,549.341736 568.147949,561.704834   C577.887451,572.490540 588.821289,582.008972 600.256042,590.954285   C600.871338,591.435608 601.639465,591.721558 602.417908,592.142517   C604.415588,589.773193 602.506165,588.773804 601.266785,587.561951   C592.809204,579.292664 584.351685,571.023193 575.907837,562.739868   C564.697937,551.743164 555.601135,538.906982 545.108215,527.284302   C544.138733,526.210510 543.036072,525.062500 543.204773,522.743469   C548.200806,521.182373 553.299744,521.918213 558.975098,522.571533   C552.975952,540.168701 567.459106,545.444397 576.581970,553.915588   C574.279419,548.582947 570.436951,544.300537 567.049072,539.687683   C564.832703,536.669922 562.264465,533.630432 563.499634,529.263062   C565.121277,523.529480 569.376526,522.009583 574.015015,525.731445   C575.429810,526.866577 576.665405,528.225220 578.232666,529.737915  M404.498749,523.409668   C397.029419,524.040710 389.392029,523.056824 380.865662,524.840027   C386.178925,528.590942 412.226868,528.600098 416.099121,525.567017   C412.986298,522.308228 409.004730,523.765137 404.498749,523.409668  M617.109070,510.305298   C613.151794,510.916138 608.709412,508.836761 604.776855,512.148438   C608.968689,514.495300 619.163635,514.500732 622.956055,512.413879   C622.051025,509.896393 619.844910,510.481781 617.109070,510.305298  z"/>
    <path fill="#000000" opacity="1.000000" stroke="none"
          d=" M500.999878,424.389343   C491.005493,424.440063 481.510834,424.461487 472.016968,424.561279   C469.714569,424.585449 467.329803,424.625336 467.296112,421.584015   C467.182526,411.325867 467.252838,401.065613 467.252838,390.255798   C472.408356,391.616119 475.757233,395.247711 480.535614,395.991760   C470.714417,388.724426 462.077881,380.359436 454.750153,370.545502   C447.349609,360.634125 443.143738,349.311218 438.829956,337.068390   C437.226501,340.016449 437.324249,342.416656 437.303833,344.760956   C437.278656,347.658630 435.953186,348.633057 433.165741,347.927917   C413.803619,343.029877 393.715637,329.177704 390.307495,305.624939   C387.894745,288.951111 393.522675,275.218475 405.299347,263.668365   C406.959717,262.039948 408.795227,260.580963 410.616699,259.127563   C417.178345,253.891846 420.428070,247.365021 419.901794,238.719131   C419.172485,226.737808 419.678009,214.876541 423.371063,203.183685   C430.939178,179.221420 456.014648,160.597763 481.153503,159.437119   C499.146576,158.606400 514.952087,163.466019 529.541748,173.479034   C538.672485,179.745560 548.437561,184.219391 559.423828,186.708908   C582.983337,192.047531 598.385620,206.165039 602.816956,230.647049   C603.719177,235.631683 604.040344,240.756439 602.223816,246.435577   C589.052856,239.552017 576.028198,233.887939 560.728516,232.079468   C562.528137,234.520859 564.454041,235.244141 566.293396,236.095901   C576.869446,240.993408 587.552185,245.677368 597.980286,250.872238   C606.992615,255.361771 615.026794,261.343018 621.246155,269.394684   C636.614136,289.290161 631.914612,319.667908 611.151306,335.160309   C603.164429,341.119629 594.239685,344.977264 584.581543,347.401276   C580.293701,348.477417 578.140015,347.773285 578.582397,342.937103   C578.634460,342.368591 578.206970,341.756195 577.176025,340.835419   C572.691406,349.386414 569.175354,358.363800 564.174866,366.558716   C559.088074,374.895020 552.292969,381.725708 544.816956,388.853333   C548.101624,389.753845 548.527405,391.793304 548.511230,394.581757   C548.468811,401.899902 548.976868,409.219238 549.113037,416.540924   C549.269531,424.959839 549.189331,425.005371 540.961731,424.913239   C527.807495,424.765961 514.653809,424.566376 500.999878,424.389343  M528.013916,257.689850   C508.688171,248.141983 499.777222,231.190582 495.777740,210.834122   C493.677917,211.978668 494.085510,213.277878 494.043304,214.359406   C493.704376,223.041351 495.576477,231.261673 499.756744,238.851791   C509.410736,256.380585 524.050171,266.220337 544.086487,269.050293   C562.543213,271.657196 585.555481,265.836853 594.551270,259.587708   C588.333801,260.427429 582.588318,261.239716 576.832825,261.973907   C560.512390,264.055817 544.310852,264.607758 528.013916,257.689850  M459.562195,277.061188   C479.877838,263.080902 490.416992,236.227890 484.919556,221.383392   C479.703827,256.144348 457.065033,276.092133 427.180328,289.896454   C439.065674,288.730774 449.331726,283.883484 459.562195,277.061188  M546.360779,313.650146   C549.169189,311.693909 549.668213,309.126526 547.875000,306.349823   C546.455750,304.152161 544.167236,303.447113 541.790588,304.671600   C539.382568,305.912262 538.822327,308.297272 539.623962,310.663818   C540.562500,313.434601 542.448059,315.155884 546.360779,313.650146  M476.034302,310.638641   C477.222046,307.540192 476.037170,305.451935 473.066681,304.500977   C470.811127,303.778900 468.694580,304.458618 467.709930,306.758606   C466.750793,308.999084 466.736145,311.418030 469.016510,312.940155   C471.687195,314.722961 473.993561,313.946014 476.034302,310.638641  M509.217865,368.010803   C506.723846,368.519409 503.865845,367.115967 500.738525,369.673523   C505.661743,369.945129 509.608246,370.509888 513.737610,369.378265   C512.699524,367.528961 511.238342,368.181396 509.217865,368.010803  z"/>


    <path fill="#000000" opacity="1.000000" stroke="none"
          d=" M444.176819,541.000000   C444.123169,554.332092 444.084198,567.164246 444.012207,579.996216   C443.972565,587.060791 443.232788,587.945862 436.024719,589.806091   C434.144867,588.329590 434.801575,586.182922 434.798767,584.301880   C434.734680,541.138794 434.696960,497.975708 434.701080,454.812592   C434.702576,439.518768 444.259674,429.733154 459.629242,429.655334   C484.459595,429.529602 509.291779,429.595581 534.122192,429.745605   C543.295105,429.801025 552.426880,429.060455 561.578430,428.866486   C576.703552,428.545807 587.667908,438.464050 587.918884,453.519623   C588.313232,477.175934 587.967712,500.844604 587.916931,524.508057   C587.915161,525.311340 587.713440,526.114258 587.600708,526.949097   C582.508728,525.410950 578.776611,520.671021 578.786560,515.942322   C578.828735,495.944061 578.901062,475.945801 578.901123,455.947540   C578.901184,444.259857 573.233276,438.389618 561.673706,437.908264   C560.176697,437.845947 558.666809,437.815643 557.190308,437.590637   C552.884888,436.934601 549.509460,437.221863 548.100708,442.541565   C547.148804,446.135925 543.832092,447.786224 540.067078,448.386414   C533.924561,449.365631 527.757019,449.009369 521.605957,448.931213   C509.114868,448.772614 496.614227,449.430450 484.131256,448.482483   C479.559937,448.135315 476.131378,446.106476 474.454376,441.794647   C473.240082,438.672546 471.013519,437.495178 467.914001,437.451569   C465.581512,437.418762 463.239502,437.301208 460.916992,437.453857   C451.062622,438.101624 444.189026,445.156982 444.163239,455.007294   C444.088623,483.504639 444.162262,512.002380 444.176819,541.000000  z"/>




































</svg>
