<svg version="1.1" id="Layer_1" xmlns="http://www.w3.org/2000/svg" xmlns:xlink="http://www.w3.org/1999/xlink" x="0px" y="0px"
	 width="100%" viewBox="0 0 1024 1024" enable-background="new 0 0 1024 1024" xml:space="preserve">
<path fill="#000000" opacity="1.000000" stroke="none" 
	d="
M578.232666,529.737915 
	C587.638367,539.451904 596.512146,549.204590 606.017334,558.297119 
	C619.928894,571.604736 626.607727,587.915649 629.403992,606.706848 
	C632.482361,627.394653 635.121399,648.212769 640.405701,668.511963 
	C641.415894,672.392639 640.240417,674.147522 637.067749,676.017517 
	C628.063049,681.325012 619.089539,686.726624 611.605103,694.465576 
	C619.679260,690.472717 627.784607,686.541199 635.819702,682.471130 
	C645.442444,677.597046 643.765503,677.825439 647.020935,686.951599 
	C647.691895,688.832703 648.262451,690.749878 648.945129,692.626526 
	C653.657532,705.581238 649.852173,703.429810 664.701782,703.698792 
	C668.493835,703.767456 672.288147,703.708984 676.868530,703.708984 
	C675.180481,698.146240 673.671021,693.496582 672.357666,688.792114 
	C663.178345,655.911621 651.994202,623.668457 641.370483,591.247925 
	C636.124573,575.238892 625.867554,562.676880 613.523193,551.648621 
	C608.059082,546.767090 602.452698,542.039978 596.799988,537.377197 
	C594.968445,535.866455 593.957092,534.227783 594.086670,531.845215 
	C595.390198,507.868378 594.245972,483.874390 594.588501,459.890747 
	C594.611694,458.270264 594.032166,456.563110 595.040833,455.059082 
	C596.314880,454.366119 597.313660,455.082306 598.362122,455.565186 
	C611.221252,461.487305 623.914734,467.808807 636.979004,473.237823 
	C665.180176,484.957245 683.370483,505.456665 692.222229,534.478271 
	C698.967590,556.593445 705.446838,578.791626 712.393616,600.842957 
	C717.986450,618.596619 722.819763,636.598450 729.427368,654.025757 
	C730.649109,657.248047 730.523743,660.918152 732.578247,663.873718 
	C735.174194,663.923889 736.701294,662.638611 737.869446,660.615662 
	C744.383789,649.334473 748.613770,637.318115 748.625366,624.193420 
	C748.699036,540.865967 748.749390,457.538239 748.620056,374.210846 
	C748.569458,341.632782 722.285706,310.425354 690.322021,304.608673 
	C684.940552,303.629364 679.441101,303.247589 673.911682,303.345856 
	C664.581909,303.511658 655.244812,303.275146 645.915405,303.450836 
	C642.179443,303.521210 640.577148,302.486786 640.586914,298.406311 
	C640.609680,288.899048 640.417664,288.723022 650.054077,288.909393 
	C663.359802,289.166779 676.704651,287.731873 689.970337,289.619598 
	C714.676575,293.135345 733.577148,306.031158 747.895996,326.025482 
	C758.636169,341.022736 763.152527,358.035004 763.210815,376.313904 
	C763.289978,401.145386 763.366638,425.978058 763.170593,450.808105 
	C763.135681,455.226318 764.520813,456.769562 768.806763,456.630310 
	C774.632690,456.441071 780.470703,456.632263 786.303528,456.649078 
	C790.161804,456.660187 793.038574,458.292633 793.100464,462.332275 
	C793.162720,466.398468 790.520813,468.858917 786.473877,469.020660 
	C780.483521,469.260101 774.474121,469.247772 768.479980,469.082947 
	C764.769531,468.980896 763.035767,470.036438 763.154602,474.157104 
	C763.511353,486.528046 761.666382,485.352081 774.117249,485.445038 
	C789.615662,485.560699 805.092102,484.469910 820.581604,485.061676 
	C822.908020,485.150543 825.237854,485.289856 827.551636,485.539490 
	C830.761963,485.885834 833.110779,487.592285 832.921082,490.942719 
	C832.726868,494.371185 830.343079,496.299377 826.872559,496.360840 
	C817.546936,496.526031 808.219360,496.647095 798.892456,496.653381 
	C788.562744,496.660309 778.231995,496.581146 767.903748,496.410004 
	C764.557556,496.354553 762.986328,497.472229 763.233032,501.048340 
	C763.473328,504.531708 763.488342,508.058319 763.241699,511.540375 
	C762.958008,515.546936 764.689819,516.738037 768.503845,516.714600 
	C787.501831,516.597473 806.500977,516.659363 825.499756,516.678040 
	C831.660706,516.684082 835.019775,518.656982 835.157349,522.266418 
	C835.305481,526.153870 831.791931,528.406189 825.507935,528.406311 
	C807.009155,528.406799 788.510254,528.371887 770.011536,528.398071 
	C763.646545,528.407104 763.244446,528.855042 763.239502,535.249878 
	C763.217712,563.414673 762.817261,591.585938 763.285461,619.742737 
	C764.069702,666.908325 727.267700,711.046021 679.150696,718.022766 
	C676.528503,718.402954 673.831970,718.360657 671.169983,718.362000 
	C643.171814,718.376038 615.173401,718.412720 587.175720,718.288757 
	C583.238892,718.271362 580.489746,719.194580 577.813904,722.475281 
	C571.613831,730.076538 563.153748,734.104004 553.350891,734.168030 
	C524.020752,734.359619 494.686188,734.451233 465.358551,734.121826 
	C454.195099,733.996399 443.963379,730.598633 436.996735,720.934631 
	C435.125336,718.338745 432.574799,718.367981 429.870972,718.370544 
	C402.206116,718.397095 374.539673,718.220276 346.876923,718.466675 
	C321.380493,718.693726 300.288239,708.634827 282.319489,691.369934 
	C267.144104,676.788940 257.197205,659.165588 253.413971,638.286377 
	C252.372711,632.539734 251.893799,626.740845 251.892471,620.902344 
	C251.886032,592.404358 251.882568,563.906311 251.878098,535.408325 
	C251.877014,528.468201 251.817886,528.395996 244.975418,528.392090 
	C229.309769,528.383240 213.644135,528.389587 197.978485,528.383362 
	C195.978775,528.382568 193.978043,528.376343 191.979553,528.314941 
	C188.052719,528.194458 184.831421,526.715881 184.785477,522.381897 
	C184.737930,517.895874 188.052261,516.670349 191.990250,516.670166 
	C208.655823,516.669250 225.321579,516.702637 241.986908,516.633606 
	C252.360214,516.590637 252.009705,518.200928 251.901199,506.712341 
	C251.790939,495.037384 253.417923,496.443176 241.471893,496.413055 
	C220.306732,496.359619 199.141342,496.387238 177.976059,496.375366 
	C176.309753,496.374451 174.637100,496.414368 172.978561,496.288239 
	C169.754974,496.042969 167.468765,494.460083 167.445267,491.057037 
	C167.422058,487.696655 169.568344,485.982758 172.840317,485.692383 
	C173.833588,485.604218 174.838638,485.642792 175.838379,485.634216 
	C198.831116,485.437378 221.823898,485.245575 244.816589,485.044312 
	C251.880600,484.982513 251.924515,484.967865 251.748978,478.149658 
	C251.514175,469.029541 253.699356,469.164307 242.461456,469.179138 
	C232.129105,469.192780 221.796585,469.115753 211.464188,469.071442 
	C210.465164,469.067139 209.454361,469.099365 208.469604,468.964386 
	C204.615982,468.436157 202.324371,466.301483 202.531387,462.302094 
	C202.731277,458.439972 205.344986,456.729218 208.916718,456.694366 
	C220.414932,456.582062 231.914688,456.634277 243.413727,456.592834 
	C251.682312,456.563019 251.840042,456.372589 251.842377,448.273621 
	C251.849396,423.942078 251.103561,399.580505 252.058578,375.285950 
	C253.531967,337.804749 271.584625,310.656128 305.926880,294.945068 
	C315.241730,290.683716 325.213837,288.780884 335.540222,288.843964 
	C348.538696,288.923370 361.540710,288.950806 374.536011,288.714752 
	C378.768799,288.637909 380.510742,289.782928 380.418854,294.316559 
	C380.235382,303.365204 380.457977,303.368958 371.589966,303.370056 
	C360.590668,303.371399 349.587433,303.565308 338.592926,303.336609 
	C315.479950,302.855835 297.605988,312.918030 283.091461,330.178162 
	C271.386047,344.097809 266.486267,360.406677 266.452850,378.230652 
	C266.313293,452.723541 266.320496,527.216797 266.362366,601.709900 
	C266.370483,616.140015 265.382507,630.681946 270.218781,644.712708 
	C272.806763,652.220886 276.013336,659.355957 280.841156,665.716492 
	C284.078033,664.390503 284.144226,661.660645 284.844025,659.396667 
	C297.125580,619.664429 309.243408,579.880920 321.695526,540.202332 
	C325.832977,527.018433 330.787537,514.165527 339.356293,502.929718 
	C350.266479,488.623718 365.027466,479.900055 381.044617,472.875366 
	C395.074768,466.722046 409.214844,460.818146 423.343933,454.893555 
	C424.946625,454.221497 426.556458,452.928772 428.576599,453.835815 
	C429.661163,455.485901 429.244476,457.372101 429.243866,459.162262 
	C429.236176,481.660553 429.132294,504.159058 429.203339,526.656982 
	C429.214813,530.293396 428.214142,532.778564 425.144135,535.067444 
	C416.601349,541.436646 408.355713,548.206116 400.028351,554.862000 
	C383.907715,567.746826 376.135925,585.559692 370.265442,604.649170 
	C361.802856,632.167786 352.953400,659.567383 344.296997,687.026611 
	C342.659302,692.221558 341.152100,697.457581 339.318359,703.561279 
	C347.212402,704.270935 354.597534,703.998718 361.962860,703.587524 
	C363.908905,703.478882 364.267151,701.371399 364.792206,699.826538 
	C366.613251,694.468201 368.529968,689.133667 370.089844,683.698181 
	C371.235046,679.707703 372.870819,679.138733 376.518707,681.229797 
	C387.491791,687.519714 398.831299,693.125305 410.500366,698.156067 
	C404.511932,692.365479 397.627289,687.753052 390.717255,683.192749 
	C386.408600,680.349182 382.015076,677.625000 377.562531,675.012817 
	C375.429199,673.761292 374.307465,672.263306 374.876587,669.748840 
	C380.493256,644.933838 382.872162,619.526489 388.627258,594.733459 
	C391.009033,584.472656 395.329163,575.237061 402.305115,567.304260 
	C409.356628,559.285400 416.999207,551.851990 424.907043,544.688843 
	C425.843658,543.840393 426.713287,542.627014 428.391907,543.093445 
	C429.787354,544.414978 429.205505,546.181580 429.212585,547.754333 
	C429.277222,562.085815 429.172150,576.418945 429.364258,590.748291 
	C429.409790,594.147827 428.283691,596.314575 425.531677,598.191406 
	C417.510315,603.661743 410.679688,610.460815 404.450256,617.943237 
	C410.775574,615.137146 415.982758,610.600220 421.661987,606.822876 
	C437.401917,596.354248 453.927551,587.453064 471.750610,581.054016 
	C472.847595,580.660217 473.944153,580.240906 475.072998,579.964600 
	C478.960449,579.013123 483.056580,577.502075 485.670471,582.223450 
	C487.699677,585.888733 486.415466,591.206238 482.230774,594.176758 
	C477.354340,597.638367 472.067505,600.524353 466.940735,603.630432 
	C450.111572,613.826172 438.888489,628.402527 433.024384,647.128601 
	C430.098541,656.471802 429.279755,666.060730 430.378784,675.767395 
	C432.166290,691.555420 445.262909,703.429688 461.932159,703.556335 
	C494.094482,703.800659 526.263550,703.837524 558.423767,703.453979 
	C580.893677,703.186035 593.408203,690.041016 593.697021,667.567139 
	C593.729126,665.067688 593.692078,662.565125 593.808105,660.069641 
	C593.963623,656.725891 592.590881,654.674927 589.071106,654.109558 
	C587.331238,655.911072 588.063599,658.199768 588.099182,660.217346 
	C588.196594,665.734619 588.030945,671.257568 586.962891,676.635986 
	C584.375732,689.663879 574.596741,697.752869 559.962219,697.919739 
	C527.301697,698.292114 494.631104,698.439392 461.972321,698.044312 
	C443.750366,697.823853 432.466187,681.140442 434.982391,661.173401 
	C438.197479,635.660767 452.186798,618.189575 473.884613,605.920349 
	C475.334961,605.100220 476.784393,604.277405 478.214264,603.422485 
	C486.730591,598.330994 494.797485,592.921387 492.932312,580.330261 
	C499.170929,586.894348 498.368439,599.139099 492.196350,606.622681 
	C488.783905,610.760254 484.068604,612.773743 479.587341,615.348999 
	C470.204193,620.741333 460.962158,626.595886 454.441040,635.461182 
	C445.779724,647.235962 442.548187,660.661194 444.451721,675.159790 
	C445.476105,682.962524 453.245209,688.861145 462.281342,688.883118 
	C486.946136,688.942993 511.611206,688.887939 536.276184,688.875305 
	C544.775574,688.870972 553.276672,688.963196 561.773804,688.819824 
	C570.957764,688.664917 577.614136,682.914490 578.779541,673.775757 
	C580.651550,659.097595 579.865784,644.925842 570.419922,632.395203 
	C567.232239,628.166504 564.511963,623.475403 562.281250,618.669189 
	C560.424744,614.669189 558.082886,613.936157 554.003845,614.682922 
	C540.685791,617.120972 528.432922,609.266174 525.248474,596.612549 
	C523.026184,587.782288 527.620422,575.880554 535.110535,570.375916 
	C537.322449,568.750366 538.716858,569.259155 540.110962,571.127197 
	C550.742920,585.373047 562.538208,598.846985 567.608215,616.546753 
	C570.877747,627.960571 580.014404,637.604126 591.048096,642.329163 
	C590.699768,640.307861 589.283386,639.389343 588.244141,638.360413 
	C581.014282,631.202209 575.420898,622.902100 572.335266,613.255493 
	C566.698242,595.631958 555.060364,581.844299 543.897522,567.789307 
	C533.331787,554.486145 521.939087,541.841431 512.125000,527.935181 
	C509.914398,524.802734 507.719421,521.674011 506.433014,517.999146 
	C504.922852,513.685242 505.868713,510.069489 509.527496,507.376221 
	C513.176331,504.690338 516.681702,506.065430 519.488159,508.723175 
	C524.806458,513.759766 530.020142,518.936157 534.932129,524.366638 
	C546.106262,536.720215 556.984131,549.341736 568.147949,561.704834 
	C577.887451,572.490540 588.821289,582.008972 600.256042,590.954285 
	C600.871338,591.435608 601.639465,591.721558 602.417908,592.142517 
	C604.415588,589.773193 602.506165,588.773804 601.266785,587.561951 
	C592.809204,579.292664 584.351685,571.023193 575.907837,562.739868 
	C564.697937,551.743164 555.601135,538.906982 545.108215,527.284302 
	C544.138733,526.210510 543.036072,525.062500 543.204773,522.743469 
	C548.200806,521.182373 553.299744,521.918213 558.975098,522.571533 
	C552.975952,540.168701 567.459106,545.444397 576.581970,553.915588 
	C574.279419,548.582947 570.436951,544.300537 567.049072,539.687683 
	C564.832703,536.669922 562.264465,533.630432 563.499634,529.263062 
	C565.121277,523.529480 569.376526,522.009583 574.015015,525.731445 
	C575.429810,526.866577 576.665405,528.225220 578.232666,529.737915 
M404.498749,523.409668 
	C397.029419,524.040710 389.392029,523.056824 380.865662,524.840027 
	C386.178925,528.590942 412.226868,528.600098 416.099121,525.567017 
	C412.986298,522.308228 409.004730,523.765137 404.498749,523.409668 
M617.109070,510.305298 
	C613.151794,510.916138 608.709412,508.836761 604.776855,512.148438 
	C608.968689,514.495300 619.163635,514.500732 622.956055,512.413879 
	C622.051025,509.896393 619.844910,510.481781 617.109070,510.305298 
z"/>
<path fill="#000000" opacity="1.000000" stroke="none" 
	d="
M500.999878,424.389343 
	C491.005493,424.440063 481.510834,424.461487 472.016968,424.561279 
	C469.714569,424.585449 467.329803,424.625336 467.296112,421.584015 
	C467.182526,411.325867 467.252838,401.065613 467.252838,390.255798 
	C472.408356,391.616119 475.757233,395.247711 480.535614,395.991760 
	C470.714417,388.724426 462.077881,380.359436 454.750153,370.545502 
	C447.349609,360.634125 443.143738,349.311218 438.829956,337.068390 
	C437.226501,340.016449 437.324249,342.416656 437.303833,344.760956 
	C437.278656,347.658630 435.953186,348.633057 433.165741,347.927917 
	C413.803619,343.029877 393.715637,329.177704 390.307495,305.624939 
	C387.894745,288.951111 393.522675,275.218475 405.299347,263.668365 
	C406.959717,262.039948 408.795227,260.580963 410.616699,259.127563 
	C417.178345,253.891846 420.428070,247.365021 419.901794,238.719131 
	C419.172485,226.737808 419.678009,214.876541 423.371063,203.183685 
	C430.939178,179.221420 456.014648,160.597763 481.153503,159.437119 
	C499.146576,158.606400 514.952087,163.466019 529.541748,173.479034 
	C538.672485,179.745560 548.437561,184.219391 559.423828,186.708908 
	C582.983337,192.047531 598.385620,206.165039 602.816956,230.647049 
	C603.719177,235.631683 604.040344,240.756439 602.223816,246.435577 
	C589.052856,239.552017 576.028198,233.887939 560.728516,232.079468 
	C562.528137,234.520859 564.454041,235.244141 566.293396,236.095901 
	C576.869446,240.993408 587.552185,245.677368 597.980286,250.872238 
	C606.992615,255.361771 615.026794,261.343018 621.246155,269.394684 
	C636.614136,289.290161 631.914612,319.667908 611.151306,335.160309 
	C603.164429,341.119629 594.239685,344.977264 584.581543,347.401276 
	C580.293701,348.477417 578.140015,347.773285 578.582397,342.937103 
	C578.634460,342.368591 578.206970,341.756195 577.176025,340.835419 
	C572.691406,349.386414 569.175354,358.363800 564.174866,366.558716 
	C559.088074,374.895020 552.292969,381.725708 544.816956,388.853333 
	C548.101624,389.753845 548.527405,391.793304 548.511230,394.581757 
	C548.468811,401.899902 548.976868,409.219238 549.113037,416.540924 
	C549.269531,424.959839 549.189331,425.005371 540.961731,424.913239 
	C527.807495,424.765961 514.653809,424.566376 500.999878,424.389343 
M528.013916,257.689850 
	C508.688171,248.141983 499.777222,231.190582 495.777740,210.834122 
	C493.677917,211.978668 494.085510,213.277878 494.043304,214.359406 
	C493.704376,223.041351 495.576477,231.261673 499.756744,238.851791 
	C509.410736,256.380585 524.050171,266.220337 544.086487,269.050293 
	C562.543213,271.657196 585.555481,265.836853 594.551270,259.587708 
	C588.333801,260.427429 582.588318,261.239716 576.832825,261.973907 
	C560.512390,264.055817 544.310852,264.607758 528.013916,257.689850 
M459.562195,277.061188 
	C479.877838,263.080902 490.416992,236.227890 484.919556,221.383392 
	C479.703827,256.144348 457.065033,276.092133 427.180328,289.896454 
	C439.065674,288.730774 449.331726,283.883484 459.562195,277.061188 
M546.360779,313.650146 
	C549.169189,311.693909 549.668213,309.126526 547.875000,306.349823 
	C546.455750,304.152161 544.167236,303.447113 541.790588,304.671600 
	C539.382568,305.912262 538.822327,308.297272 539.623962,310.663818 
	C540.562500,313.434601 542.448059,315.155884 546.360779,313.650146 
M476.034302,310.638641 
	C477.222046,307.540192 476.037170,305.451935 473.066681,304.500977 
	C470.811127,303.778900 468.694580,304.458618 467.709930,306.758606 
	C466.750793,308.999084 466.736145,311.418030 469.016510,312.940155 
	C471.687195,314.722961 473.993561,313.946014 476.034302,310.638641 
M509.217865,368.010803 
	C506.723846,368.519409 503.865845,367.115967 500.738525,369.673523 
	C505.661743,369.945129 509.608246,370.509888 513.737610,369.378265 
	C512.699524,367.528961 511.238342,368.181396 509.217865,368.010803 
z"/>
<path fill="#000000" opacity="1.000000" stroke="none" 
	d="
M473.521423,846.484070 
	C468.919250,842.182739 466.230103,837.025024 463.384949,830.810791 
	C459.454590,841.967773 453.124939,850.105896 442.623108,854.400208 
	C431.886932,858.790344 421.802643,857.313538 411.927795,850.881592 
	C408.846161,856.348694 404.477112,859.337219 398.019379,857.571167 
	C393.495239,856.333984 390.805786,853.336182 390.670959,848.622375 
	C389.756409,816.645569 389.592377,784.658813 389.814789,752.672607 
	C389.849365,747.702515 391.488251,742.978821 396.804596,740.985962 
	C401.592590,739.191223 406.018829,740.216125 409.750488,743.699707 
	C412.827209,746.571960 413.073486,750.497375 413.124512,754.333862 
	C413.239777,762.996765 413.186005,771.661865 413.199738,780.326111 
	C413.202576,782.128723 413.200134,783.931274 413.200134,786.404297 
	C437.685608,776.384094 453.421814,785.661987 463.915710,808.155151 
	C469.184784,795.684448 476.970734,786.182678 490.447754,782.997070 
	C504.024841,779.787903 515.357239,784.083679 525.591919,794.739075 
	C526.902649,788.988281 528.452698,784.174011 534.214233,782.477661 
	C539.853027,780.817444 543.930054,782.771667 547.000610,787.266968 
	C560.255676,779.158020 567.799500,780.242981 569.709961,790.852173 
	C581.754028,781.026123 594.648315,778.698853 608.171997,786.377380 
	C610.205383,785.035339 609.639648,783.381287 609.610962,781.992065 
	C609.436157,773.504272 609.982971,765.003967 609.032166,756.524353 
	C608.776001,754.239624 608.920288,751.834778 609.328186,749.565491 
	C610.376099,743.736023 615.473145,739.732117 621.042114,740.087158 
	C627.195923,740.479492 631.924072,744.688843 632.328247,750.702942 
	C633.781921,772.337402 633.061890,793.994568 632.754517,815.645691 
	C632.612732,825.638000 632.478638,835.630432 632.348022,845.622864 
	C632.263977,852.055786 629.552856,856.015869 624.341125,857.291748 
	C618.104004,858.818665 613.378052,856.600891 610.277649,850.542236 
	C604.722229,854.843994 598.460815,857.394958 591.415894,856.947205 
	C584.455139,856.504761 578.100281,853.922363 572.531738,849.738525 
	C561.876587,841.732971 552.407654,825.451111 560.201904,805.337708 
	C557.565247,804.600891 555.729309,805.963928 554.105896,807.590210 
	C549.808289,811.895569 547.438354,817.113281 547.366577,823.222717 
	C547.276428,830.886230 547.372131,838.551697 547.334229,846.216064 
	C547.302551,852.628723 543.814819,856.901917 538.348999,857.344666 
	C531.757080,857.878662 527.808716,854.695068 526.586182,847.896851 
	C526.327393,846.457947 525.967102,845.037354 525.627136,843.487854 
	C505.133698,860.526306 489.613586,861.448730 473.521423,846.484070 
M606.990784,809.570190 
	C606.306885,808.845215 605.681641,808.051941 604.929688,807.406189 
	C599.033020,802.342346 591.929077,801.999634 586.234436,806.468933 
	C580.083008,811.296936 578.066650,819.936829 581.524963,826.648682 
	C585.017212,833.426331 592.473389,836.721802 599.499390,834.779541 
	C609.595886,831.988342 614.358093,818.941956 606.990784,809.570190 
M415.920471,809.481812 
	C415.199585,810.785339 414.314941,812.025879 413.785797,813.403076 
	C411.360016,819.716858 412.366302,825.530884 417.013184,830.429382 
	C420.724304,834.341370 425.211060,836.645325 430.860199,835.099915 
	C437.783905,833.205750 442.665314,827.567749 443.454681,820.603333 
	C444.096436,814.941589 439.984924,808.065979 434.274200,805.250916 
	C427.548828,801.935791 422.563904,802.945801 415.920471,809.481812 
M510.660004,808.886780 
	C509.648254,808.034241 508.703003,807.083496 507.613617,806.345459 
	C501.837952,802.432434 496.063995,802.365112 490.937317,806.080688 
	C485.178040,810.254578 482.709259,817.441162 484.722748,824.171204 
	C486.579742,830.378296 492.295532,834.714600 498.702911,835.014221 
	C505.292084,835.322205 509.853912,832.125488 512.898682,826.702942 
	C516.290955,820.661438 514.933350,814.873291 510.660004,808.886780 
z"/>
<path fill="#000000" opacity="1.000000" stroke="none" 
	d="
M741.098083,882.825012 
	C738.203186,879.081970 735.850098,875.476746 735.678528,870.897095 
	C735.480652,865.613770 738.040955,861.982727 742.630920,859.773682 
	C746.938293,857.700684 751.950012,858.784668 755.406982,862.481750 
	C756.873901,864.050537 758.053467,865.897522 759.292603,867.667786 
	C762.909058,872.834351 769.094727,875.436951 774.888367,874.181396 
	C781.644836,872.717102 786.526611,868.062805 787.531616,861.625977 
	C788.037720,858.385132 787.904175,855.044373 788.040466,852.159424 
	C787.021973,851.186096 786.369934,851.271606 785.810486,851.678833 
	C769.168884,863.793945 748.137390,853.405823 739.783386,838.695007 
	C726.710876,815.675415 740.416626,786.231140 766.432129,782.295288 
	C774.515015,781.072449 781.375671,784.312256 787.867065,789.079834 
	C791.434814,783.587036 795.908203,780.377136 802.585876,782.385193 
	C807.179749,783.766541 809.972961,786.783020 810.403992,791.650574 
	C810.697388,794.963562 810.906921,798.295044 810.923584,801.619446 
	C811.013000,819.442627 811.019836,837.266296 811.074829,855.089661 
	C811.129333,872.759094 802.037537,887.376526 787.248474,893.348816 
	C770.023254,900.304932 754.306641,896.794617 741.098083,882.825012 
M771.686279,835.651184 
	C772.517761,835.634888 773.377930,835.752197 774.176270,835.581238 
	C780.710083,834.182251 785.532898,830.576965 787.225891,823.975281 
	C788.866272,817.579102 787.512207,811.644226 782.242310,807.240112 
	C777.401794,803.194702 771.933167,801.982849 765.988892,804.840149 
	C760.212158,807.616760 756.559204,814.961426 757.371887,822.066284 
	C758.117798,828.587036 763.161865,833.642761 771.686279,835.651184 
z"/>
<path fill="#000000" opacity="1.000000" stroke="none" 
	d="
M251.818695,764.334473 
	C261.023193,790.446594 270.118103,816.179565 279.104950,841.950256 
	C281.478210,848.755920 279.135712,854.255066 273.141174,856.841980 
	C267.036194,859.476562 260.939575,857.286621 257.470215,851.154175 
	C256.735382,849.855286 256.114197,848.478149 255.574066,847.085266 
	C251.012558,835.322083 251.021866,835.320923 238.270996,835.332581 
	C233.105682,835.337341 227.935165,835.467224 222.777039,835.273682 
	C219.796814,835.161804 218.182404,836.225098 217.309280,839.096375 
	C216.148483,842.913635 214.817932,846.700378 213.251587,850.368469 
	C210.526016,856.751282 204.296814,859.399048 198.081284,857.058594 
	C192.220734,854.851868 189.718231,849.558777 191.983551,842.741333 
	C201.534836,813.997070 211.352768,785.341309 220.860077,756.582642 
	C223.156311,749.636780 228.499817,747.672607 234.663849,747.099060 
	C241.400055,746.472351 245.949387,749.614075 248.693497,756.023865 
	C249.805359,758.620972 250.683899,761.317932 251.818695,764.334473 
M226.645416,810.692139 
	C226.405075,812.179504 224.985535,814.348877 227.866241,814.473022 
	C233.234512,814.704224 238.648331,815.024048 244.590591,814.225891 
	C241.304932,805.051270 238.285568,796.620239 234.827545,786.964355 
	C231.884811,795.554688 229.407104,802.787476 226.645416,810.692139 
z"/>
<path fill="#000000" opacity="1.000000" stroke="none" 
	d="
M337.502289,854.811401 
	C325.883331,858.569397 321.388397,858.007568 308.101929,851.321228 
	C306.725189,852.262634 307.290100,853.721863 307.282440,854.941895 
	C307.225006,864.100342 307.265045,873.259338 307.234222,882.418030 
	C307.205811,890.855225 302.303772,897.009216 295.550537,897.159912 
	C288.699707,897.312927 283.722961,891.335449 283.711121,882.743713 
	C283.671448,853.935120 283.714172,825.126404 283.643799,796.317932 
	C283.629395,790.416870 284.868439,785.337524 290.906708,782.830811 
	C296.473450,780.519775 300.904175,781.950623 306.313782,787.605835 
	C306.527557,787.829346 306.863647,787.935913 307.438446,788.267578 
	C315.304321,782.773132 323.973053,780.467529 333.664093,783.162598 
	C356.091064,789.399475 367.563751,815.628052 356.920105,836.473938 
	C352.687561,844.763489 346.732605,851.231812 337.502289,854.811401 
M308.062103,823.395874 
	C310.645142,831.586487 318.266388,836.877075 325.174500,835.275085 
	C333.241882,833.404236 339.324036,825.536621 338.318359,818.272583 
	C337.041290,809.048035 329.037628,802.335388 320.759735,803.546204 
	C311.812225,804.854980 306.410065,812.830261 308.062103,823.395874 
z"/>
<path fill="#000000" opacity="1.000000" stroke="none" 
	d="
M444.176819,541.000000 
	C444.123169,554.332092 444.084198,567.164246 444.012207,579.996216 
	C443.972565,587.060791 443.232788,587.945862 436.024719,589.806091 
	C434.144867,588.329590 434.801575,586.182922 434.798767,584.301880 
	C434.734680,541.138794 434.696960,497.975708 434.701080,454.812592 
	C434.702576,439.518768 444.259674,429.733154 459.629242,429.655334 
	C484.459595,429.529602 509.291779,429.595581 534.122192,429.745605 
	C543.295105,429.801025 552.426880,429.060455 561.578430,428.866486 
	C576.703552,428.545807 587.667908,438.464050 587.918884,453.519623 
	C588.313232,477.175934 587.967712,500.844604 587.916931,524.508057 
	C587.915161,525.311340 587.713440,526.114258 587.600708,526.949097 
	C582.508728,525.410950 578.776611,520.671021 578.786560,515.942322 
	C578.828735,495.944061 578.901062,475.945801 578.901123,455.947540 
	C578.901184,444.259857 573.233276,438.389618 561.673706,437.908264 
	C560.176697,437.845947 558.666809,437.815643 557.190308,437.590637 
	C552.884888,436.934601 549.509460,437.221863 548.100708,442.541565 
	C547.148804,446.135925 543.832092,447.786224 540.067078,448.386414 
	C533.924561,449.365631 527.757019,449.009369 521.605957,448.931213 
	C509.114868,448.772614 496.614227,449.430450 484.131256,448.482483 
	C479.559937,448.135315 476.131378,446.106476 474.454376,441.794647 
	C473.240082,438.672546 471.013519,437.495178 467.914001,437.451569 
	C465.581512,437.418762 463.239502,437.301208 460.916992,437.453857 
	C451.062622,438.101624 444.189026,445.156982 444.163239,455.007294 
	C444.088623,483.504639 444.162262,512.002380 444.176819,541.000000 
z"/>
<path fill="#000000" opacity="1.000000" stroke="none" 
	d="
M724.849670,857.103943 
	C715.823914,858.729858 710.189575,854.279541 709.993958,845.409119 
	C709.814148,837.257812 710.019287,829.098022 710.043091,820.942017 
	C710.047913,819.277832 710.044983,817.611389 709.968872,815.949585 
	C709.608643,808.086914 705.222046,803.086304 698.816589,803.198242 
	C692.888550,803.301880 687.546387,809.097656 687.394897,816.156494 
	C687.191467,825.639893 687.364258,835.131042 687.342163,844.618774 
	C687.322449,853.095642 683.564270,857.366577 676.187012,857.369507 
	C669.116516,857.372314 664.785889,852.669739 664.739014,844.560181 
	C664.644775,828.248291 664.716980,811.935486 664.668884,795.623230 
	C664.651978,789.885559 666.175720,784.952576 671.904785,782.587891 
	C677.516907,780.271606 681.879700,782.790466 685.635132,786.873657 
	C685.964539,787.231873 686.378052,787.512634 687.000000,788.038635 
	C696.111450,780.874573 705.954956,779.964355 716.260071,785.373718 
	C725.897644,790.432617 730.872070,798.856812 732.198242,809.294617 
	C733.838684,822.205811 731.980286,835.193604 732.228699,848.153137 
	C732.315796,852.697205 729.081421,855.248291 724.849670,857.103943 
z"/>
<path fill="#000000" opacity="1.000000" stroke="none" 
	d="
M380.771667,894.981079 
	C371.668732,898.878723 364.237640,894.735413 363.118225,885.361755 
	C362.764832,882.402588 362.918640,879.377991 362.912048,876.383118 
	C362.854736,850.413330 362.811554,824.443542 362.771729,798.473755 
	C362.768158,796.147583 362.840240,793.854614 363.411652,791.545227 
	C365.089050,784.765686 369.241058,781.310730 375.281342,781.927429 
	C382.125793,782.626282 386.200378,786.792358 386.253143,793.806641 
	C386.405853,814.115540 386.321442,834.426208 386.435913,854.735535 
	C386.487488,863.883789 386.825500,873.030029 386.965210,882.178223 
	C387.043304,887.293945 385.326691,891.639099 380.771667,894.981079 
z"/>
<path fill="#000000" opacity="1.000000" stroke="none" 
	d="
M570.459717,491.989075 
	C566.830627,503.043549 558.967712,509.049347 548.687805,508.947083 
	C537.720459,508.837982 528.778259,502.563141 525.875366,492.939545 
	C523.130371,483.839294 526.618408,473.540131 534.428833,467.683533 
	C542.212708,461.846863 553.052856,461.472351 561.068054,466.763214 
	C569.009338,472.005280 572.839478,482.017731 570.459717,491.989075 
z"/>
<path fill="#000000" opacity="1.000000" stroke="none" 
	d="
M720.779297,458.164215 
	C711.390869,461.231354 702.969666,460.526215 695.799683,453.796082 
	C689.301941,447.697083 687.285095,440.024475 689.327454,431.482605 
	C691.855469,420.909088 701.535645,413.613739 712.361389,413.686096 
	C722.083740,413.751068 731.599243,421.754730 733.860474,432.055267 
	C736.066589,442.104858 731.523315,454.027039 720.779297,458.164215 
z"/>
<path fill="#000000" opacity="1.000000" stroke="none" 
	d="
M345.122681,440.349548 
	C343.950470,428.584564 349.337067,418.927979 358.753265,415.302338 
	C369.601471,411.125305 379.217133,413.756378 385.808441,422.705231 
	C392.432526,431.698517 392.673828,443.254303 385.934875,451.333313 
	C380.206512,458.200836 372.764465,461.325592 363.746704,459.344360 
	C353.655975,457.127380 347.451599,450.898071 345.122681,440.349548 
M360.520325,445.802979 
	C365.955017,445.802979 371.389709,445.802979 376.824432,445.802979 
	C371.242462,444.577454 365.662872,443.221039 360.520325,445.802979 
M365.319275,433.257202 
	C355.040741,432.529266 354.878357,432.713562 356.495209,444.302307 
	C356.861725,440.675751 356.386139,437.505249 357.606964,435.255188 
	C359.205444,432.308990 363.240692,435.392303 365.319275,433.257202 
z"/>
<path fill="#000000" opacity="1.000000" stroke="none" 
	d="
M660.005249,847.346863 
	C657.667725,855.148499 653.127563,858.336792 646.400452,857.285767 
	C640.921875,856.429810 637.661133,851.792664 637.645203,844.637390 
	C637.608154,827.991333 637.576477,811.344910 637.634766,794.699036 
	C637.660217,787.424011 640.783875,783.676147 647.109253,782.918640 
	C653.136719,782.196716 658.214600,786.058105 659.671143,792.537903 
	C659.960938,793.826965 660.177063,795.166077 660.176392,796.481995 
	C660.167847,813.293213 660.113647,830.104492 660.005249,847.346863 
z"/>
<path fill="#000000" opacity="1.000000" stroke="none" 
	d="
M657.773804,415.876404 
	C668.337585,422.550568 672.686279,433.575653 669.313904,444.415497 
	C665.959778,455.196472 656.953491,461.226166 646.087463,459.965607 
	C634.474731,458.618408 625.932739,449.869537 624.858765,438.222809 
	C623.954224,428.412445 631.338196,417.627686 640.865784,414.792389 
	C646.504456,413.114441 652.025635,413.230133 657.773804,415.876404 
M644.889587,423.254181 
	C642.192200,425.840820 642.082092,428.766418 643.972168,431.786896 
	C644.942810,433.338104 646.222900,434.891449 648.362122,434.411865 
	C650.858765,433.852051 652.230591,431.928467 653.011353,429.639648 
	C654.535950,425.170197 650.943848,421.949036 644.889587,423.254181 
z"/>
<path fill="#000000" opacity="1.000000" stroke="none" 
	d="
M322.999451,449.829407 
	C316.152893,459.569855 303.654907,462.576630 293.063446,457.307556 
	C283.124084,452.362885 278.446625,440.397949 282.044891,429.122040 
	C285.415588,418.559204 296.379730,412.077179 307.752167,413.923859 
	C318.854340,415.726685 327.342224,425.923950 327.109924,437.258331 
	C327.018677,441.712128 325.243774,445.664886 322.999451,449.829407 
M302.585754,427.935150 
	C304.178070,428.364105 305.883453,428.560120 307.340668,429.267365 
	C311.134064,431.108490 312.260681,434.603821 311.922058,438.434906 
	C311.560822,442.521820 309.436707,445.693451 305.330383,446.961182 
	C301.425507,448.166779 298.618866,446.459290 296.490112,443.176819 
	C295.881134,442.237793 295.698303,440.391754 293.735565,441.142670 
	C294.616547,445.565460 298.438477,448.934784 302.868652,449.228973 
	C307.801910,449.556610 312.759735,445.752075 314.232849,440.508362 
	C315.648834,435.468048 313.158722,429.880035 308.199280,426.968292 
	C303.934662,424.464539 298.989807,425.153839 295.497620,428.892212 
	C293.322876,431.220337 292.153351,433.887207 293.261749,437.095337 
	C295.017975,432.811737 296.966370,429.125885 302.585754,427.935150 
z"/>
<path fill="#000000" opacity="1.000000" stroke="none" 
	d="
M484.929169,628.743713 
	C495.560150,635.088379 500.070557,646.015869 496.480927,656.027344 
	C492.792206,666.315002 482.470520,672.550903 472.067169,670.796875 
	C462.758636,669.227417 456.786713,663.793213 454.004730,654.903381 
	C451.345795,646.406738 453.604706,638.959595 460.107147,633.166870 
	C467.194824,626.852722 475.381805,624.561096 484.929169,628.743713 
M480.159882,653.004883 
	C481.198517,653.556580 482.036804,655.113037 483.863373,653.343445 
	C481.193573,648.077881 476.081482,650.628052 472.186646,649.886841 
	C469.992218,649.469238 467.690857,650.089844 466.808777,653.799438 
	C471.445953,653.859314 475.335480,648.566223 480.159882,653.004883 
M479.285583,644.049072 
	C479.961273,645.499451 480.907227,646.938721 482.436035,645.221313 
	C483.410919,644.126160 483.420685,642.149414 481.963013,641.341736 
	C480.158478,640.342041 479.359772,641.691467 479.285583,644.049072 
z"/>
<path fill="#000000" opacity="1.000000" stroke="none" 
	d="
M455.380798,556.328918 
	C450.921906,546.818176 451.608826,538.107117 458.300323,530.412231 
	C464.327393,523.481445 472.233765,521.543213 480.971375,523.868469 
	C490.143555,526.309326 495.764679,532.381409 497.801025,541.731689 
	C499.993988,551.801331 494.003571,562.509888 483.824860,566.576904 
	C472.696777,571.023376 461.888336,567.233765 455.380798,556.328918 
M470.995544,546.596191 
	C468.333893,547.815308 466.340973,549.679077 467.491211,552.766968 
	C468.499786,555.474365 471.018982,556.874573 473.874298,556.453064 
	C476.528625,556.061218 479.382172,554.727661 479.923309,551.972656 
	C480.564423,548.708740 476.939240,548.573242 474.997681,547.335205 
	C474.086670,546.754272 472.816620,546.736389 470.995544,546.596191 
M484.849060,540.523010 
	C482.064178,538.550781 479.438782,538.615540 477.746002,541.755432 
	C476.033142,544.932556 478.285004,546.630981 480.787933,547.956909 
	C482.946075,549.100159 485.079346,548.874268 486.674011,547.072266 
	C488.827454,544.638916 486.687347,542.864563 484.849060,540.523010 
M475.078979,540.633911 
	C478.222168,536.040283 478.222168,536.040283 474.338013,533.420959 
	C474.693146,537.776672 471.870331,538.201538 468.131531,537.819031 
	C470.117432,540.546997 471.439819,542.678589 475.078979,540.633911 
z"/>
<path fill="#000000" opacity="1.000000" stroke="none" 
	d="
M354.458008,380.645813 
	C356.861420,384.633240 359.145996,388.284607 359.345886,393.027557 
	C358.383881,393.207153 357.608582,393.478577 356.833405,393.478119 
	C337.038422,393.466766 317.243378,393.444916 297.448486,393.381317 
	C291.502014,393.362213 291.184113,392.723328 292.827515,387.011169 
	C296.011658,375.943726 304.245972,370.769409 314.606964,368.008789 
	C316.988281,367.374298 318.686157,369.137421 320.554474,370.085083 
	C322.552979,371.098755 324.424561,372.069824 326.620544,370.728149 
	C336.404175,364.750488 343.515472,371.023529 350.786774,376.137634 
	C352.221497,377.146729 353.120422,378.917603 354.458008,380.645813 
z"/>
<path fill="#000000" opacity="1.000000" stroke="none" 
	d="
M662.236877,393.380707 
	C658.318298,393.572632 657.459839,392.225677 658.450684,388.838837 
	C661.729126,377.632874 669.628296,371.536621 680.294495,368.203094 
	C682.957397,367.370880 684.747131,368.999237 686.793701,369.952362 
	C689.064697,371.010010 691.121033,372.119812 693.861633,370.953918 
	C702.185364,367.413055 712.205444,370.256317 717.995789,377.655823 
	C720.691833,381.101135 722.389648,385.063385 723.725342,389.224335 
	C724.855591,392.744934 723.534912,393.564056 720.157898,393.538422 
	C701.008057,393.392944 681.856995,393.418457 662.236877,393.380707 
z"/>
<path fill="#000000" opacity="1.000000" stroke="none" 
	d="
M566.000427,661.823608 
	C560.867249,672.022827 541.783447,672.279297 534.348328,666.951050 
	C524.947815,660.214355 522.243408,647.624939 528.402527,637.213257 
	C534.305725,627.234497 546.913391,623.826965 557.626526,629.083008 
	C568.163147,634.252441 573.360352,651.865540 566.000427,661.823608 
M556.999451,656.800293 
	C560.059692,653.317505 559.005920,650.111755 555.571289,648.093018 
	C553.257935,646.733337 552.150269,645.276672 551.877930,642.786072 
	C551.623840,640.462646 550.661438,638.516846 548.005249,638.352661 
	C545.456726,638.195190 543.861450,639.763977 543.379700,642.065430 
	C542.804016,644.815918 541.700867,646.663879 539.097717,648.222534 
	C536.624146,649.703674 535.867004,652.847839 536.589355,655.797913 
	C537.021362,657.562012 538.744873,658.738647 540.428589,658.340881 
	C545.681274,657.099854 551.075195,658.420166 556.999451,656.800293 
z"/>
<path fill="#000000" opacity="1.000000" stroke="none" 
	d="
M708.117065,343.091187 
	C707.289673,349.695953 705.261658,355.711212 701.811462,360.669769 
	C694.933411,370.554901 687.033508,370.008331 680.055969,359.824188 
	C675.357300,352.966248 673.814880,344.635162 675.809204,336.006073 
	C677.499756,328.691437 682.561401,324.476074 690.932312,324.118835 
	C698.223145,323.807678 704.243225,327.826935 706.154968,334.430878 
	C706.938293,337.136841 707.447083,339.922241 708.117065,343.091187 
z"/>
<path fill="#000000" opacity="1.000000" stroke="none" 
	d="
M308.646179,341.435944 
	C310.222015,328.540649 314.401550,324.308807 324.941132,324.562164 
	C333.531219,324.768616 338.771637,329.384583 340.133575,338.126831 
	C341.426819,346.427887 339.220734,354.146423 334.880096,361.009796 
	C329.435608,369.618652 318.586365,369.258972 313.647644,360.394836 
	C310.491699,354.730560 308.322784,348.556305 308.646179,341.435944 
z"/>
<path fill="#000000" opacity="1.000000" stroke="none" 
	d="
M430.287811,389.365479 
	C430.502472,403.982025 423.780731,410.878754 410.266510,410.374237 
	C401.975739,410.064728 394.936554,402.657379 394.631561,393.921509 
	C394.283569,383.954498 400.493866,375.701569 409.075134,374.727356 
	C420.344727,373.447845 427.370148,378.155731 430.287811,389.365479 
z"/>
<path fill="#000000" opacity="1.000000" stroke="none" 
	d="
M459.139099,501.856750 
	C449.004608,491.393799 451.505798,475.021454 460.324707,468.210266 
	C469.611877,461.037292 484.568146,462.094879 492.125824,470.742584 
	C500.445129,480.261749 500.318970,493.387878 491.826538,501.881989 
	C483.147461,510.562805 468.820221,510.669891 459.139099,501.856750 
M482.797729,496.658386 
	C487.972717,493.960693 489.397705,489.401611 488.692963,484.055756 
	C487.986572,478.697449 485.095795,474.828033 479.868103,472.978851 
	C473.696686,470.795776 467.122559,473.098236 463.767487,478.561157 
	C460.321625,484.171906 460.980713,490.953674 465.367401,495.024200 
	C471.173889,500.412170 476.428131,501.101562 481.989899,497.018951 
	C481.989899,497.018951 482.167633,496.859039 482.797729,496.658386 
z"/>
<path fill="#000000" opacity="1.000000" stroke="none" 
	d="
M610.648926,375.879272 
	C620.145996,380.495239 624.015137,387.673431 622.082397,396.514893 
	C620.266663,404.820984 613.232910,410.710602 604.696045,411.073120 
	C595.781006,411.451721 588.844055,406.872498 586.293640,398.796204 
	C584.096375,391.838501 585.592041,385.525543 590.571960,380.353699 
	C596.023865,374.691681 602.772034,373.312103 610.648926,375.879272 
M602.735046,388.003632 
	C600.731201,388.414764 597.485535,386.887756 597.650391,390.810516 
	C597.750916,393.201752 596.019653,396.770447 599.830566,397.548492 
	C603.398193,398.276855 607.191467,399.151703 611.052368,397.816742 
	C610.290710,395.526978 606.539551,396.233826 607.191223,393.057129 
	C607.710205,390.527679 610.082825,392.839172 611.039246,391.471100 
	C610.298279,386.339874 606.267029,388.644989 602.735046,388.003632 
z"/>
<path fill="#000000" opacity="1.000000" stroke="none" 
	d="
M642.211304,754.972534 
	C651.224182,751.566650 657.898132,754.268066 660.677856,762.120056 
	C663.115845,769.006653 659.667969,776.325134 652.892639,778.644897 
	C647.020264,780.655518 641.164917,778.571411 638.288696,773.446899 
	C634.831604,767.287415 636.243103,760.092651 642.211304,754.972534 
z"/>
<path fill="#000000" opacity="1.000000" stroke="none" 
	d="
M367.874054,348.424957 
	C373.423828,348.523834 376.936432,347.277740 376.182526,340.871002 
	C375.903290,338.498352 377.403717,336.185791 380.421326,336.498749 
	C383.321838,336.799591 383.599884,339.240967 383.317963,341.419922 
	C382.666687,346.453064 384.700439,348.450684 389.707367,348.066772 
	C392.437683,347.857391 394.935425,348.954437 394.779175,352.154785 
	C394.621826,355.378540 392.097687,356.016602 389.326996,355.669983 
	C384.662018,355.086365 382.961426,357.298523 383.320984,361.730255 
	C383.507904,364.034302 383.032410,366.331482 380.235474,366.534058 
	C377.198395,366.754028 376.121094,364.397186 376.229309,361.932159 
	C376.427246,357.425293 374.693787,355.519104 370.108276,355.966248 
	C368.013947,356.170410 366.222565,355.106659 365.420990,352.961517 
	C364.623627,350.827637 365.638489,349.476746 367.874054,348.424957 
z"/>
<path fill="#000000" opacity="1.000000" stroke="none" 
	d="
M630.110229,355.780151 
	C627.228271,355.544647 624.817017,354.906006 624.970215,351.861603 
	C625.126404,348.758759 627.587463,347.646698 630.271240,347.853577 
	C634.851562,348.206665 636.131042,346.088318 635.663330,341.925964 
	C635.331848,338.975891 636.253479,336.322723 639.723450,336.370941 
	C643.068115,336.417358 643.579651,339.104706 643.188110,341.788727 
	C642.523987,346.341675 644.295776,348.210297 648.913208,347.922577 
	C651.340942,347.771301 653.889465,348.642487 653.707153,351.680115 
	C653.539856,354.469269 651.274841,355.520996 648.672180,355.307648 
	C644.600952,354.973969 642.852905,356.613739 643.248718,360.760620 
	C643.504517,363.440796 643.589478,366.653076 639.792297,366.635803 
	C636.376465,366.620209 635.821167,363.725861 635.741028,360.878876 
	C635.699646,359.410645 635.574768,357.944763 635.498230,356.656677 
	C633.828369,355.183197 632.088745,356.035034 630.110229,355.780151 
z"/>
<path fill="#000000" opacity="1.000000" stroke="none" 
	d="
M178.612030,574.846680 
	C177.076309,569.982788 178.090546,567.897522 182.413269,567.824707 
	C194.386673,567.623047 206.366425,567.717590 218.342529,567.823303 
	C220.880066,567.845703 222.978958,569.146545 223.112305,571.949463 
	C223.235153,574.531982 221.358307,576.121704 219.044373,576.140015 
	C206.244965,576.241028 193.443695,576.128479 180.643509,576.028931 
	C180.059326,576.024414 179.479675,575.439636 178.612030,574.846680 
z"/>
<path fill="#000000" opacity="1.000000" stroke="none" 
	d="
M373.747986,250.502518 
	C375.597595,255.516174 374.902283,259.846741 371.250977,263.170197 
	C368.303223,265.853271 364.599823,266.932648 360.642883,265.239319 
	C356.083008,263.287964 353.543091,259.839722 353.733978,254.783356 
	C353.914703,249.998337 356.344849,246.577408 360.872345,245.007370 
	C365.810913,243.294769 370.052063,245.140167 373.747986,250.502518 
z"/>
<path fill="#000000" opacity="1.000000" stroke="none" 
	d="
M806.118713,564.609985 
	C814.892151,564.612366 823.184753,564.612732 831.477417,564.621704 
	C833.872742,564.624268 836.558655,564.654846 836.722961,567.795532 
	C836.911072,571.391052 834.223572,572.747253 831.156860,572.785034 
	C821.707092,572.901550 812.253845,572.846680 802.803406,572.735901 
	C799.962402,572.702576 797.159668,571.723145 797.253662,568.356934 
	C797.353271,564.793274 800.362061,564.604126 803.150208,564.625732 
	C803.979370,564.632141 804.808716,564.616699 806.118713,564.609985 
z"/>
<path fill="#000000" opacity="1.000000" stroke="none" 
	d="
M203.233917,412.929321 
	C207.525970,412.920563 211.351730,412.849915 215.174316,412.930420 
	C218.700623,413.004700 222.983261,412.955505 223.081039,417.664185 
	C223.186600,422.747314 218.697617,422.720612 215.019684,422.838959 
	C210.534256,422.983276 206.041763,422.924438 201.552322,422.922546 
	C197.923218,422.920990 194.451492,422.012024 194.423035,417.754425 
	C194.395325,413.610291 197.922791,413.072998 201.270142,412.964966 
	C201.768661,412.948853 202.267532,412.943573 203.233917,412.929321 
z"/>
<path fill="#000000" opacity="1.000000" stroke="none" 
	d="
M222.846054,593.982056 
	C223.804291,593.986816 224.301163,593.994751 224.797989,593.991821 
	C228.700500,593.968567 232.540771,594.416138 232.467056,599.494202 
	C232.394165,604.514648 228.459579,604.920410 224.635315,604.976135 
	C221.166428,605.026672 217.653458,605.471741 214.244644,604.589111 
	C211.262573,603.817017 209.030594,601.958374 209.288651,598.655029 
	C209.537827,595.465088 212.085510,594.342529 214.937714,594.131348 
	C217.410187,593.948120 219.901627,594.020630 222.846054,593.982056 
z"/>
<path fill="#000000" opacity="1.000000" stroke="none" 
	d="
M798.678467,593.705566 
	C802.594482,593.718750 805.751404,594.516113 805.661987,598.707458 
	C805.577698,602.658569 802.488586,603.899963 799.094849,604.047363 
	C795.126770,604.219666 791.142883,604.156189 787.169922,604.045898 
	C783.883972,603.954651 781.777710,602.275024 781.802917,598.842590 
	C781.828308,595.382568 784.015442,593.835266 787.284851,593.758667 
	C790.927979,593.673279 794.573975,593.716125 798.678467,593.705566 
z"/>
<path fill="#000000" opacity="1.000000" stroke="none" 
	d="
M702.518799,483.438812 
	C702.716125,480.896454 702.476990,478.318665 705.488892,478.132477 
	C708.649475,477.937103 709.118591,480.397766 709.281067,482.863831 
	C709.361450,484.083649 709.608948,485.242889 710.983704,485.577515 
	C713.079773,486.087769 715.636597,486.233673 715.379700,489.231140 
	C715.096436,492.536377 711.862244,491.448914 709.750671,492.362000 
	C709.590881,493.307983 709.350281,494.262024 709.282532,495.228180 
	C709.123047,497.501862 708.212708,499.097351 705.722778,499.156464 
	C703.481995,499.209595 702.324280,497.701141 702.117126,495.760193 
	C701.799194,492.781158 700.755432,491.147736 697.404419,491.592957 
	C695.932251,491.788513 694.940552,490.667633 694.807922,489.140350 
	C694.654724,487.376862 695.608459,486.367340 697.282715,485.958069 
	C699.110474,485.511353 701.436340,486.267670 702.518799,483.438812 
z"/>
<path fill="#000000" opacity="1.000000" stroke="none" 
	d="
M307.506287,495.799866 
	C302.833038,494.096252 300.842804,490.968597 301.392426,486.459534 
	C301.818207,482.966248 303.938202,480.728912 307.462555,480.200684 
	C311.323975,479.621948 314.252167,481.346497 316.181610,484.589539 
	C319.288635,489.811859 315.102814,495.459167 307.506287,495.799866 
z"/>
<path fill="#000000" opacity="1.000000" stroke="none" 
	d="
M713.855957,545.497314 
	C716.701477,540.330505 720.712097,538.951538 724.450195,541.476440 
	C728.040344,543.901367 728.925354,549.153625 726.288025,552.383057 
	C723.521118,555.771423 718.883911,556.125305 715.705994,553.265686 
	C713.419678,551.208374 713.529541,548.590393 713.855957,545.497314 
z"/>
<path fill="#000000" opacity="1.000000" stroke="none" 
	d="
M294.350800,541.093994 
	C295.876099,540.759460 297.479614,540.463928 297.851715,541.643433 
	C298.817505,544.705017 300.397400,546.329956 303.692108,547.367493 
	C306.284882,548.183960 305.191345,550.971924 303.011444,551.710083 
	C300.555786,552.541626 299.357452,553.690613 298.557648,556.219421 
	C297.778534,558.682739 294.043030,558.567444 293.267365,555.979187 
	C292.461456,553.289978 291.104675,552.268555 288.571564,551.845642 
	C287.268280,551.628052 286.178864,550.620667 286.106079,549.083923 
	C286.052826,547.960754 286.814850,546.833557 287.754333,546.945190 
	C292.152496,547.468079 292.473572,543.761108 294.350800,541.093994 
z"/>
<path fill="#000000" opacity="1.000000" stroke="none" 
	d="
M650.448914,261.303406 
	C650.204834,255.967468 652.224487,253.047562 656.192200,252.809265 
	C659.771729,252.594315 662.501831,254.199982 663.171509,257.812805 
	C663.909607,261.794739 661.985718,264.666534 658.078918,265.756042 
	C654.440430,266.770721 652.033020,264.963806 650.448914,261.303406 
z"/>
<path fill="#000000" opacity="1.000000" stroke="none" 
	d="
M814.851624,424.091980 
	C812.422058,423.967651 810.407898,423.998505 808.454834,423.668274 
	C806.505188,423.338623 804.961914,422.137482 805.050110,419.990631 
	C805.139832,417.806396 806.806702,416.851807 808.802917,416.741638 
	C811.459351,416.594971 814.127258,416.667084 816.789795,416.618439 
	C819.139465,416.575500 821.441528,417.099396 821.743835,419.717834 
	C822.081055,422.638397 819.821411,423.656891 817.287598,423.991089 
	C816.630188,424.077820 815.958801,424.059143 814.851624,424.091980 
z"/>
<path fill="#000000" opacity="1.000000" stroke="none" 
	d="
M809.856567,378.797882 
	C805.454895,382.060394 802.325256,381.842163 800.556824,378.364105 
	C799.247925,375.789795 799.305664,373.227112 801.562683,371.150238 
	C803.660278,369.220032 806.089478,369.172729 808.329163,370.794342 
	C811.054077,372.767273 812.066040,375.329529 809.856567,378.797882 
z"/>
<path fill="#000000" opacity="1.000000" stroke="none" 
	d="
M214.153503,628.461060 
	C216.690277,625.955933 219.062622,625.858521 221.493088,627.941833 
	C223.514191,629.674194 224.110794,631.867798 222.938644,634.216797 
	C221.760498,636.577698 219.520905,637.320374 217.011810,636.933044 
	C213.395554,636.374695 212.327744,633.451843 214.153503,628.461060 
z"/>
<path fill="#000000" opacity="1.000000" stroke="none" 
	d="
M481.902618,497.100647 
	C478.327362,496.642151 477.910400,493.069458 476.484772,491.163879 
	C473.640869,490.952209 473.531525,493.240387 472.261810,494.165039 
	C469.726593,496.011230 466.436859,495.300232 466.457916,492.596100 
	C466.490814,488.364807 465.978149,483.905457 468.467590,480.006958 
	C470.540070,476.761414 473.304443,474.909515 477.275513,475.939545 
	C481.123749,476.937683 483.340698,479.600006 483.258118,483.535004 
	C483.169373,487.766418 486.396393,492.301971 482.230865,496.542053 
	C482.167633,496.859039 481.989899,497.018951 481.902618,497.100647 
z"/>
</svg>
